<?xml version="1.0" encoding="UTF-8" standalone="no"?>
<!DOCTYPE svg PUBLIC "-//W3C//DTD SVG 1.1//EN"
"http://www.w3.org/Graphics/SVG/1.1/DTD/svg11.dtd">


<!-- Page 1 -->
<svg x="0" y="0" width="907" height="1028" viewBox="0 0 907 1028" version="1.1" xmlns="http://www.w3.org/2000/svg" xmlns:xlink="http://www.w3.org/1999/xlink"
style="display: block;margin-left: auto;margin-right: auto;">
<defs>
<clipPath id="c_1"><path d="M0,0H907V1028H0Z" /></clipPath>
<style type="text/css"><![CDATA[
text { white-space: pre; }
path, image { pointer-events: none; }

.s1_1{
font-size: 12.38px;
font-family: Helvetica_r2;
fill: TRANSPARENT;
}
.s2_1{
font-size: 45.83px;
font-family: Helvetica_r2;
fill: TRANSPARENT;
}
.s3_1{
font-size: 12.22px;
font-family: Helvetica_r2;
fill: TRANSPARENT;
}
.s4_1{
font-size: 9.16px;
font-family: Helvetica_r2;
fill: TRANSPARENT;
}


]]></style>

</defs>
<g clip-path="url(#c_1)">
<path d="M0,0
L0,1028
L907,1028
L907,0 Z " 
fill="#FFFFFF" stroke="none" />
<image x="0" y="0" width="907" height="1028" xlink:href="1/img/1.png" />
<text x="56" y="26" class="s1_1">Read</text>
<text x="214" y="86" class="s1_1">Reference base match</text>
<text x="214" y="112" dx="0,0,0,0,0,0,0,0,0,0,0,0,0,0,0,0,0,0,0,0,0,0,0,0,0,0,0,0,0,0,0,0,0,0,0,0,0,0.1,0,0,0,0" class="s1_1">Nucleotide-conversion base: mismatch score</text>
<text x="214" y="139" class="s1_1">Nucleotide-conversion base: conversion-aware score </text>
<text x="214" y="165" dx="0,0,0,0,0,0,0,0,0,0,0,0,0,0,0,0,0,0,0,0,0,0,0,0,0,0,0,0,0,0,0,0,0.1,0,0,0,0,0,0" class="s1_1">Nucleotide-conversion base: low quality</text>
<text x="214" y="192" class="s1_1">Nucleotide-conversion base: filtered</text>
<text x="563" y="105" class="s1_1">Filtered read</text>
<text x="563" y="26" class="s1_1">Reference genome</text>
<text x="721" y="73" dx="0,0,0,0,0,0,0,0,0,0,0,0.7,0,0,0" class="s1_1">Conversion base</text>
<text x="19" y="358" class="s1_1">(a)</text>
<text x="19" y="497" class="s1_1">(b)</text>
<text x="19" y="682" class="s1_1">(c)</text>
<text x="19" y="851" class="s1_1">(d)</text>
<text x="401" y="556" class="s1_1">alignment filtering and </text>
<text x="402" y="570" class="s1_1">multimapper recovery</text>
<text x="430" y="723" dx="0,0,0,-0.2,0,0,0,0,0,0,0" class="s1_1">SNP calling</text>
<text x="398" y="875" class="s1_1">confident nt-conversion </text>
<text x="423" y="890" class="s1_1">deconvolution </text>
<text x="644" y="296" class="s2_1">DUNK</text>
<text x="373" y="997" class="s1_1">nt-conversion quantification in 3' </text>
<text x="438" y="1011" class="s1_1">intervals</text>
<text x="406" y="397" class="s1_1">nt-conversion aware </text>
<text x="424" y="411" class="s1_1">read mapping</text>
<text x="84" y="589" class="s3_1">A</text>
<text x="191" y="589" class="s3_1">B</text>
<text x="247" y="589" class="s3_1">C</text>
<text x="323" y="589" class="s3_1">D</text>
<text x="58" y="490" class="s4_1">R1</text>
<text x="58" y="503" class="s4_1">R2</text>
<text x="58" y="517" class="s4_1">R3</text>
<text x="58" y="530" class="s4_1">R4</text>
<text x="58" y="543" class="s4_1">R5</text>
<text x="58" y="556" class="s4_1">R6</text>
<text x="58" y="570" class="s4_1">R7</text>
<text x="583" y="589" class="s3_1">A</text>
<text x="691" y="589" class="s3_1">B</text>
<text x="746" y="589" class="s3_1">C</text>
<text x="822" y="589" class="s3_1">D</text>
<text x="558" y="490" class="s4_1">R1</text>
<text x="558" y="503" class="s4_1">R2</text>
<text x="558" y="517" class="s4_1">R3</text>
<text x="558" y="530" class="s4_1">R4</text>
<text x="558" y="543" class="s4_1">R5</text>
<text x="558" y="556" class="s4_1">R6</text>
<text x="558" y="570" class="s4_1">R7</text>
<text x="559" y="795" class="s4_1">Nt conversions</text>
<text x="557" y="981" class="s4_1">Coverage</text>
<text x="596" y="808" class="s4_1">1</text>
<text x="608" y="808" class="s4_1">1</text>
<text x="660" y="808" class="s4_1">2</text>
<text x="676" y="808" dx="0,0,0.1,0.4" class="s4_1">2 11</text>
<text x="726" y="808" class="s4_1">1</text>
<text x="742" y="808" class="s4_1">1</text>
<text x="761" y="808" dx="0,0.4" class="s4_1">11</text>
<text x="808" y="808" dx="0,-1" class="s4_1">11</text>
<text x="827" y="808" class="s4_1">1</text>
<text x="854" y="808" class="s4_1">1</text>
<text x="578" y="968" class="s4_1">3</text>
<text x="595" y="968" class="s4_1">3</text>
<text x="607" y="968" class="s4_1">2</text>
<text x="633" y="968" class="s4_1">1</text>
<text x="647" y="968" class="s4_1">4</text>
<text x="660" y="968" class="s4_1">4</text>
<text x="675" y="968" dx="0,0,0.7,-0.3" class="s4_1">4 33</text>
<text x="711" y="968" class="s4_1">0</text>
<text x="726" y="968" dx="0,2.5,1.8" class="s4_1">233</text>
<text x="760" y="968" dx="0,0.4" class="s4_1">43</text>
<text x="782" y="968" class="s4_1">2</text>
<text x="808" y="968" dx="0,-1,-1,0,3.4" class="s4_1">223 3</text>
<text x="840" y="968" class="s4_1">3</text>
<text x="854" y="968" class="s4_1">3</text>
<text x="57" y="796" class="s4_1">Nt conversions</text>
<text x="95" y="809" class="s4_1">1</text>
<text x="146" y="809" class="s4_1">1</text>
<text x="189" y="809" class="s4_1">1</text>
<text x="225" y="809" class="s4_1">1</text>
<text x="241" y="809" class="s4_1">1</text>
<text x="260" y="809" dx="0,0.3" class="s4_1">12</text>
<text x="340" y="809" class="s4_1">1</text>
<text x="155" y="296" class="s2_1">Naïve</text>

</g>

<!-- Any embedded fonts defined here -->
<style type="text/css" ><![CDATA[

@font-face {
	font-family: Helvetica_r2;
	src: url("fonts/Helvetica_r2.woff") format("woff");
}

]]></style>

</svg>
