<svg role="graphics-document" title="Gym Bad Ischl" desc="" alt="" xmlns="http://www.w3.org/2000/svg" xmlns:xlink="http://www.w3.org/1999/xlink" version="1.1" id="Layer_1" x="0px" y="0px" viewBox="0 0 578 257" style="max-height: 150px;" xml:space="preserve" preserveAspectRatio="xMidYMid meet">
<style type="text/css">
	.st0{fill:#4596AD;}
	.st1{fill:#6D6E71;}
</style>
<path class="st0" d="M289.2,164.3c0-3.7-2.9-6.7-6.6-6.7c0,0,0,0,0,0h-11.9V171h11.9C286.3,171,289.2,168,289.2,164.3 M270.7,142.4  v12.8h10.8c3.5-0.1,6.3-3.1,6.1-6.6c-0.1-3.3-2.8-6-6.1-6.1H270.7z M291.7,164.3c0,5-4,9.1-9.1,9.1c0,0,0,0-0.1,0h-14.4V140h13.3  c4.8,0,8.8,3.9,8.8,8.8c0,3.1-1.6,5.9-4.3,7.3C289.4,157.4,291.7,160.7,291.7,164.3"></path>
<path class="st0" d="M329.7,159.2c0,8.1-6.1,14.8-16.1,14.8c-10.4,0-17.6-7.7-17.6-17.2c-0.2-9.4,7.3-17.1,16.6-17.2  c0.2,0,0.5,0,0.7,0c5.9-0.1,11.4,3,14.4,8.1l-2.2,1.3c-2.4-4.4-7.1-7.1-12.1-7c-8-0.2-14.6,6.1-14.8,14c0,0.3,0,0.5,0,0.8  c0,8.2,6.1,14.8,15,14.8c8.1,0,13-5,13.6-11.3H313v-2.4h16.7L329.7,159.2z"></path>
<path class="st0" d="M348.3,162.3V140h2.5v22.2c0,5.4,3.4,9.3,9.7,9.3s9.7-3.8,9.7-9.3V140h2.5v22.2c0,7.1-4.9,11.7-12.3,11.7  S348.3,169.3,348.3,162.3"></path>
<polygon class="st0" points="405.1,140 405.1,173.4 402.9,173.4 383.2,144.7 383.2,173.4 380.7,173.4 380.7,140 382.9,140   402.6,168.8 402.6,140 "></polygon>
<path class="st0" d="M439.3,156.7c0-7.9-5.4-14.3-13.3-14.3h-10V171h10C433.9,171,439.3,164.6,439.3,156.7 M441.7,156.7  c0,9.2-6.5,16.7-15.7,16.7h-12.5V140H426C435.2,140,441.7,147.5,441.7,156.7"></path>
<path class="st0" d="M481.9,164.3c0-3.7-2.9-6.7-6.6-6.7c0,0,0,0,0,0h-11.9V171h11.9C479,171,481.9,168,481.9,164.3 M463.4,142.4  v12.8h10.8c3.5-0.1,6.3-3.1,6.1-6.6c-0.1-3.3-2.8-6-6.1-6.1H463.4z M484.4,164.3c0,5-4,9.1-9.1,9.1c0,0,0,0-0.1,0h-14.4V140h13.3  c4.8,0,8.8,3.9,8.8,8.8c0,3-1.6,5.9-4.3,7.3C482.1,157.4,484.4,160.7,484.4,164.3"></path>
<path class="st0" d="M493.2,157.3h10.6c4.1,0,7.5-3.3,7.5-7.5c0-4.1-3.3-7.5-7.5-7.5h-10.6V157.3z M503.7,159.7h-10.5v13.7h-2.5V140  h13.2c5.4,0,9.9,4.4,9.9,9.8c0,4.5-3,8.4-7.4,9.6l8.3,14h-2.9L503.7,159.7z"></path>
<path class="st0" d="M551.7,159.2c0,8.1-6.2,14.8-16.1,14.8c-10.4,0-17.6-7.7-17.6-17.2c-0.2-9.4,7.3-17.1,16.6-17.2  c0.2,0,0.5,0,0.7,0c5.9-0.1,11.4,3,14.4,8.1l-2.2,1.3c-2.4-4.4-7.1-7.1-12.1-7c-8-0.2-14.6,6-14.8,14c0,0.3,0,0.5,0,0.8  c0,8.2,6.1,14.8,15,14.8c8.1,0,13-5,13.5-11.3h-14.1v-2.4h16.7V159.2z"></path>
<path class="st1" d="M289.6,220.1c0.1-2.5-1.8-4.5-4.3-4.6c-0.1,0-0.2,0-0.3,0h-9v9.3h9c2.5,0.1,4.5-1.9,4.6-4.4  C289.6,220.3,289.6,220.2,289.6,220.1 M276,199.8v8.7h7.8c2.4-0.1,4.3-2.2,4.1-4.6c-0.1-2.2-1.9-4-4.1-4.1H276z M297.3,220.6  c0,6.8-5.5,11.5-12.3,11.5h-16.8v-39.6h15.6c6.7,0,12,4.5,12,11.1c0.1,3.1-1.3,6-3.7,7.9C295.4,213.4,297.4,216.9,297.3,220.6"></path>
<path class="st1" d="M324.4,217.7l-5.4-16.2l-5.4,16.2H324.4z M326.9,225h-15.8l-2.4,7.1h-8.4l13.8-39.6h9.7l13.9,39.6h-8.5  L326.9,225z"></path>
<path class="st1" d="M370.3,212.3c0-7.3-4.7-12.3-11.6-12.3h-7.9v24.7h7.9C365.5,224.7,370.3,219.7,370.3,212.3 M377.8,212.3  c0,11.1-8.1,19.8-19.1,19.8H343v-39.6h15.7C369.6,192.5,377.8,201.2,377.8,212.3"></path>
<rect x="400.2" y="192.5" class="st1" width="7.8" height="39.6"></rect>
<path class="st1" d="M414.1,223.1l6.7-3.9c1.4,3.7,4.2,6,9.1,6c4.7,0,6.3-2,6.3-4.2c0-2.9-2.7-4.1-8.5-5.8  c-6-1.7-11.9-4.3-11.9-11.8s6.2-11.8,13-11.8c6.1-0.2,11.7,3.3,14.1,8.9l-6.6,3.8c-1.4-3-3.6-5.1-7.6-5.1c-3.3,0-5.2,1.7-5.2,4  c0,2.4,1.5,3.7,7.5,5.5c6.3,2,13,4.1,13,12.2c0,7.4-5.9,11.9-14.4,11.9C421.6,232.9,416.3,229,414.1,223.1"></path>
<path class="st1" d="M448.4,212.3c0-11.6,8.6-20.6,20.6-20.6c6.9-0.1,13.4,3.5,17,9.4l-6.7,3.9c-2.1-3.6-6.1-5.8-10.3-5.7  c-7.7,0-12.8,5.4-12.8,13c0,7.6,5.1,12.9,12.8,12.9c4.5,0,8.4-2.1,10.3-5.6l6.7,3.9c-3.6,5.9-10.1,9.4-17,9.3  C457,232.9,448.4,223.8,448.4,212.3"></path>
<polygon class="st1" points="522.5,192.5 522.5,232.1 514.7,232.1 514.7,215.7 500,215.7 500,232.1 492.2,232.1 492.2,192.5   500,192.5 500,208.3 514.7,208.3 514.7,192.5 "></polygon>
<polygon class="st1" points="552.1,224.7 552.1,232.1 531.2,232.1 531.2,192.5 539,192.5 539,224.7 "></polygon>
<path class="st1" d="M360.3,74.7c0,29.3-20.4,47-47.2,47c-30.1,0-51.7-22.2-51.7-49.6c-0.2-27.4,21.9-49.8,49.3-50  c0.3,0,0.6,0,0.9,0c18.3,0,33.8,9,41.9,21.9l-18.6,10.7c-4-6.3-12.6-11.2-23.4-11.2c-16.1,0-28.2,11.9-28.2,28.7  c0,16.3,11.5,28.2,30.1,28.2c12.7,0,21.1-5.6,24.5-14.8h-25.6V66.5h48L360.3,74.7z"></path>
<polygon class="st1" points="411.6,83 411.6,119.8 389.7,119.8 389.7,83 357.5,24.1 382.4,24.1 400.6,61 418.8,24.1 443.7,24.1 "></polygon>
<polygon class="st1" points="547.7,119.8 525.8,119.8 525.8,64.1 501,104.7 498.6,104.7 473.8,64.1 473.8,119.8 451.9,119.8   451.9,24.1 473.8,24.1 499.8,66.6 525.8,24.1 547.7,24.1 "></polygon>
<path class="st0" d="M60.1,197.3c-0.3,0.4-0.6,0.5-1,0c-6.2-7.2-12.7-14.3-16.9-23.1c-1.7-3.6-3.6-7.2-5-10.9  c-0.3-0.7-0.3-1.5,0.2-2.1c2.6-4.2,4.5-8.9,6.8-13.3c0.8-1.6,0.3-2.6-1.4-3.4c-3.7-1.5-7.3-3.3-10.8-5.3c-0.9-0.4-1.4-1.3-1.3-2.2  c0-1.5-0.2-3.1-0.4-4.6c0-0.3-0.2-0.7,0.2-0.8c0.3-0.2,0.5,0.2,0.7,0.3c2.2,1.3,4.5,2.6,6.7,4c2.2,1.4,4.9,2.2,7.3,3.3  c0.3,0.1,0.5,0.1,0.8,0c0.9-0.3,1.6-0.9,2.1-1.7c2.5-4.2,4.8-8.5,6.7-13c0.1-0.3,0.2-0.7,0.3-1c-0.1-0.6-0.2-1.1-0.5-1.6  c-0.6-0.9-1.5-1.6-2.5-2.1c-6.3-3.3-12.5-6.9-18.5-10.8c-0.6-0.2-0.9-0.9-0.6-1.5c0,0,0-0.1,0-0.1c0.5-1.2,0.4-2.5,1.6-3.5  c0.7-0.7,1.8-0.7,2.5-0.1c12.3,8,24.7,15.8,36.8,24.2c6.1,4.2,12.4,8.1,18.9,11.7c0.8,0.5,0.6,1.1,0.3,1.7c-1.3,2.9-2.9,5.6-4.7,8.2  c-1.8,2.6-3.7,5.1-5.6,7.6c-3.8,5.2-6.5,11-9.4,16.7c-3.3,6.6-6.1,13.3-10.3,19.4C62.2,194.6,61.2,196,60.1,197.3 M31.7,145.1l6.5,3  c0.3,0.2,0.3,0.4,0.2,0.7c-1.2,2.5-2.3,4.9-3.6,7.6C33.5,152.6,32.7,149,31.7,145.1 M30.2,124.2c0.2-2,0.2-4,0.5-6  c0.3-1.5,0.9-2.9,0.7-4.5c0.5,0.1,1,0.3,1.4,0.6c4.8,3.2,9.9,6.2,15,8.9c1.6,0.9,1.6,0.9,0.9,2.5c-1.1,2.4-2.5,4.7-3.8,7  c-0.3,0.5-0.5,0.5-1,0.3c-4.7-2.1-9.2-4.7-13.3-7.8C30.3,124.9,30.1,124.5,30.2,124.2 M78.5,214.9c-4.7-4.4-9.6-8.6-14.7-12.6  c-0.8-0.6-0.7-1-0.2-1.6c1.1-1.4,2.2-2.8,3.1-4.3c4.4-6.7,7.7-14,11.3-21c3.6-7,7.3-14.5,12.8-20.6c2.7-3,4.6-6.7,7.3-9.8  c0.7-0.9,1.3-2,1.6-3.1c0.6-1.7,0-3.6-1.4-4.7c-2.1-1.7-4.4-3-6.7-4.6c-3.8-2.6-7.7-4.9-11.5-7.4c-5-3.2-10.1-6.3-15.1-9.5  c-8.9-5.5-17.7-11.1-26.5-16.7c-2-1.2-2.5-2-1.9-4.3c1.2-4.4,2.9-8.7,5.2-12.7c2.7-4.7,5.6-9.2,8.8-13.6c1.5-2,2.9-4.2,4.1-6.5  c0.5-1.1,0-2-0.7-2.8c-0.5-0.6-1.5-0.8-2.2-0.4c-1,0.4-1.8,1-2.5,1.8c-1.3,1.7-2.6,3.3-3.8,5.1c-7.5,10.6-13.1,22.3-16.8,34.8  c-1.2,4-2.2,8-2.8,12.1c-0.5,2.7-0.8,5.4-1,8.1c0,2.1-0.1,4.2-0.3,6.2c-0.1,2.4-0.1,4.8,0.1,7.1c0,1.3,0.2,2.7,0.4,4  c0.1,1.7,0.3,3.5,0.6,5.2c1.5,8.5,4.1,16.9,7.5,24.8c4.3,9.9,10.2,18.8,16.9,27.2c5.4,6.6,11.4,12.6,18,18c2.7,2.2,5.7,4,8.5,6.2  c0.7,0.6,1.6,0.9,2.6,0.9c0.7,0,1.4,0.1,1.6-0.6c0.4-0.9,0.2-2-0.4-2.7C79.8,216.2,79.2,215.5,78.5,214.9"></path>
<path class="st0" d="M159.7,29.7c0.3,0.4,0.6,0.7,0.9,1c0.3,0.2,0.6,0.4,0.9,0.6c0.1,0,0.2,0.1,0.2,0.1c0.7,0.2,1.3,0.4,2,0.6  c7,2.4,13.7,5.5,20,9.3c0.1,0,0.2,0.1,0.3,0.2l0.1,0.1l1.6,1c0.7,0.4,1.5,0.7,2.4,0.8c0.4,0,0.7,0,1.1-0.1c0.8-0.7,1.3-1.8,1.2-2.8  c-0.2-0.6-0.5-1.1-0.9-1.6c-2.7-1.8-5.6-3.4-8.5-4.8c-2.2-1.1-4.5-2.1-6.8-3.1c-3.6-1.7-7.4-3.1-11.3-4.3c-0.1,0-0.2,0-0.3,0  l-0.5-0.1c-0.9,0-1.7,0.2-2.4,0.8v0.1c-0.1,0.1-0.2,0.3-0.3,0.4l-0.1,0.2c0,0.1,0,0.1-0.1,0.2c0,0.4,0,0.9,0.2,1.3  C159.7,29.6,159.7,29.7,159.7,29.7"></path>
<path class="st0" d="M190.8,64.1c1,0.6,2.3,0.5,3.2-0.3c0.4-0.5,0.7-1,0.8-1.6c0.9-2.9,1.7-5.8,2.6-8.7c0.1-0.3,0.2-0.5,0.3-0.7  c0.2-0.9,0.5-1.8,0.7-2.6c0.1-1-0.3-1.9-1-2.6c-1.1-0.8-2.7-0.6-3.5,0.5c-0.1,0.2-0.2,0.4-0.3,0.5c0,0.1,0,0.2-0.1,0.2v0.1  c0,0.1,0,0.1-0.1,0.2c0,0.3-0.1,0.6-0.2,0.8c-1.2,3.8-2.2,7.7-3.3,11.5C189.6,62.4,189.9,63.5,190.8,64.1"></path>
<path class="st0" d="M235.8,110.4c-1.5-7.2-12.1-47.6-18.1-36.8c-0.3,0.7-0.2,1.5,0.2,2.1c3.2,5.2,5.8,10.7,7.8,16.5  c2.1,6,3.7,12.1,4.8,18.3c1.2,8.6,2,14.2,1.7,23.9c0.2,3.4-0.1,6.7-0.8,10c-1.1,6.5-3,12.9-5.6,19c-0.9,2-2.4,4.6-3.5,7  c-0.5,1.3,0.2,2.8,1.5,3.3c0.7,0.3,1.4,0.2,2.1-0.1c3.5-4.2,5.4-9.3,7.1-14.4c2.6-7.7,4.2-15.8,4.7-23.9  C237.3,127.1,237.4,118.5,235.8,110.4"></path>
<path class="st0" d="M203.4,76.2c0.7-0.1,1.4-0.3,1.9-0.7l7.5-4.4c0.4-0.2,0.7-0.4,1.1-0.6c1.3-0.7,1.7-2.3,1.1-3.6  c-1-2-3.5-0.8-5,0c-0.1,0.1-0.3,0.2-0.5,0.2c-1.6,1-3.3,1.9-4.9,2.9c-1.1,0.6-2.1,1.3-3.1,2.1c-0.8,0.6-1.1,1.7-0.7,2.6  C201.3,75.8,202.3,76.4,203.4,76.2"></path>
<path class="st0" d="M209.8,189.4c-3.2,5.5-7.6,10.3-12.7,14c-1,0.7-1.2,0.5-1.7-0.5c-3.7-9.6-8.6-18.8-11.1-28.8  c-0.3-1.3-0.8-2.6-0.4-3.9c0.4-1.5-0.5-3.1-2.1-3.5c-0.5-0.1-1-0.1-1.5,0c-3.6,1.5-1.9,8.7-1,11.7c3.5,9.1,6.9,18.2,11.1,26.9  c0.3,0.6,0.9,1.6,0.1,2.3c-5.2,4.2-6,5.1-12,8c-0.8,0.4-0.9,0.6-1.5-0.1c-5.7-6.6-12.1-18.3-19.6-23.4c-1.9-1.7-6-2.5-6.6,0.7  c-0.4,1.8,1.2,3,2.8,3.7c2.2,1.7,4.3,3.6,6.2,5.6c4.3,5,8.2,10.4,11.6,16.1c0.6,0.7,0.5,0.9-0.4,1.3c-2.4,1-9.9,3.7-12.5,4.2  c-1.1,0.3-1.9,1.2-2,2.3c-0.2,2.7,3.2,3.7,5.2,2.6c19-6.3,38-16.3,50.5-32.3c1.8-2.4,6.1-6.1,3.3-9.1  C213.6,185.9,210.7,187.6,209.8,189.4"></path>
<path class="st0" d="M72.3,45.6C81.6,39,91.8,34,102.6,30.7c4.9-1.5,9.9-2.2,14.9-3.2c4.1-0.8,6.8,1.2,9.6,3.4  c0.3,0.3,0.4,0.6,0,0.8c-3.3,1.2-5.3,4-7.8,6.2c-3.6,3.1-7.3,6-11.2,8.6c-3.6,2.5-7,5.2-10.2,8.1c-0.6,0.5-0.9,0.5-1.4-0.1  c-3.3-3.4-7.5-5.8-12.1-6.8c-3.6-0.8-7.2-1.2-10.9-1.2c-0.7,0-1.4,0.4-2.2,0.2C71.5,46.2,71.8,45.8,72.3,45.6 M132.4,34.8  c0.2-0.1,0.4-0.2,0.6-0.2c4.3-0.2,8.7,0,13,0.6c4.6,0.7,8.9,2.5,12.8,5.1c0.8,0.6,1.5,1.2,2.3,1.8c0.2,0.2,0.5,0.5,0.6,0.8  c-0.1,0.4-0.4,0.5-0.7,0.6c-1.8,0.9-3.7,1.8-5.6,2.8c-4,2.1-7.8,4.5-11.4,7.2c-7.6,5.5-14.7,11.6-21.2,18.3c-0.7,0.7-1,0.7-1.5-0.2  c-3.7-6.8-9.6-10.9-16.7-13.7c-1.8-0.7-1.8-0.7-0.3-2c3.2-2.5,6.4-5,9.7-7.3c4.7-3.2,9-7,13.7-10.3  C129.3,37.2,131.1,36.3,132.4,34.8 M61,52.7c1,0.7,1.9,0.3,2.8,0.1c2.7-0.5,5.4-0.9,8.1-1.2c4.8,0,8.8,0.3,12.6,1.8  c3.4,1.1,6.4,3.3,8.5,6.2c0.4,0.6,1,1.1,1.8,1.1c0.7,0.1,1.4,0.3,2,0.4c4.1,0.6,8,2.1,11.5,4.3c4.4,3,7.7,7.4,9.4,12.5  c0.5,1.4,1.6,1.5,2.8,1.7c1.1,0.3,2.2-0.2,2.8-1.1c0.5-0.7,1-1.3,1.6-1.9c5.3-5.5,11-10.6,17-15.3c5.2-4.3,10.9-8,16.8-11.2  c2.6-1.3,5.3-2.5,8-3.5c1.2-0.3,1.9-1.5,1.7-2.7c-0.1-0.3-0.2-0.6-0.4-0.8c-0.4-0.9-1-1.7-1.6-2.4c-3-3.6-6.9-6.4-11.3-8.1  c-2.2-0.8-4.5-1.4-6.8-1.9c-3.8-0.9-7.6-1.3-11.5-1.1c-1.1,0.1-2.2,0-3.3,0c-0.6,0-1.2-0.2-1.5-0.7c-2.8-3.5-6.6-5.3-10.8-6.7  c-0.4-0.1-0.8-0.2-1.2-0.1c-1.8,0.3-3.6,0.4-5.3,0.7c-5.4,0.9-10.8,2.2-16,3.8c-13,4.4-25.1,11.1-35.6,19.9  c-0.9,0.7-1.7,1.5-2.4,2.3C59.5,50.3,59.4,51.5,61,52.7"></path>
<path class="st0" d="M159.1,173.3c1.8-1.4,3.9-3.1,5.9-4.5c0.1,0,0.3-0.2,0.5-0.2c0.1-0.1,0.3-0.1,0.4-0.2c0.6-0.4,2.6-1.5,9.6-5.4  c16.2-9,24.4-19.4,25.7-32.5c0.1-1.3-1-2.5-2.3-2.5c-1.2-0.1-2.3,0.8-2.5,2.1c-1.1,11.4-8.5,20.5-23.3,28.7  c-3.8,2.1-6.5,3.5-8.2,4.4c0,0-0.1,0.1-0.1,0.1c-6.8,3.9-12.9,8.9-18,14.9c-6.1,7-10.8,15-14,23.7c-0.8,2.4-1.5,4.8-2,7.3  c-0.5,2-0.8,4.1-1,6.1c-0.1,0.9-0.3,2.5-0.3,3.2c0.1,3.1-0.3,4.8-0.1,8.2c0.1,0.9-0.3,1.2-1.3,1.1c-0.8,0-1.5-0.1-2.3-0.1  c-5.3-0.2-10.5-0.9-15.6-2c-0.6-0.1-1.1-0.5-1.1-1.1c-0.3-1.5-0.5-3-0.7-4.6c-0.6-5.3-1.6-9.8-4.4-14.1c-0.4-0.6-0.9-1.2-1.5-1.7  c-1-0.9-2.6-0.8-3.5,0.3c-0.3,0.4-0.5,0.8-0.6,1.3c-0.1,1,0.2,2,0.8,2.7c3,4.5,4,9.1,4.6,14.7c0.1,0.6-0.6,0.7-1.1,0.5  c-1.1-0.4-2.2-0.7-3.2-1.1c-2.2-0.8-4.5-1.7-6.7-2.5c-2-0.7-3.5,0.4-3.3,2.5c0.2,1,0.9,1.8,1.8,2c2.6,1.1,5.3,2.1,8,3  c5.1,1.8,10.4,2.7,15.7,3.8c2,0.4,4,0.4,6.1,0.8c2.5,0.4,5,0.3,7.6,0.6c0.9,0,1.9,0,2.8,0c1.9,0,2.7-0.7,3-2.6  c0.2-1.9,0.2-3.7,0-5.6c-0.2-2.3-0.2-4.7-0.1-7c0.1-2,0.4-4.1,0.7-6.1c0.4-1.8,0.9-3.5,1.5-5.2c2-6.7,5.1-13,9.2-18.6  C149.3,182.3,153.9,177.5,159.1,173.3"></path>
<path class="st0" d="M133,123.8c-3.2,2.9-7.1,4.1-12.2,3.9c-10,0.2-15.7-8.6-15.8-15.7c-0.2-13.2,9.2-17.8,17.2-17.8  c4.6-0.1,8.9,1.9,11.9,5.3c2.4,2.7,3.8,6.1,4.2,9.6C139,114.9,137.3,119.9,133,123.8 M142.9,118.5c2.6-7.8,0.9-16.3-4.4-22.5  c-4.9-5.3-12.1-8-19.3-7c-5.7,0.5-11,3.4-14.7,7.8c-3.2,3.8-4.4,8.4-5.1,13.1c-0.2,2.1,0,4.2,0.6,6.3c1,5.4,4.3,10.2,9.1,13  c3.8,2.5,8.3,3.7,12.8,3.4c1.9,0.1,3.7,0,5.5-0.4C135,130.4,140.4,126,142.9,118.5"></path>
<path class="st0" d="M195.7,88.8c-0.1,0.9,0.1,1.8-0.1,2.7c-0.6,3.7-2.5,7.1-5.4,9.5c-2.4,1.8-4.5,3.8-6.5,6  c-0.7,0.8-1.3,1.6-1.8,2.4c-0.4,0.6-1.6,0.6-2.4,0c-0.6-0.5,0-1,0.3-1.3c1.1-1.4,2.2-2.7,3.3-4.1c0.7-1,1.3-2.1,1.6-3.2  c0.3-0.8-0.3-1.2-0.7-1.7c-1-1-2.2-1.7-3.6-2c-1.9-0.2-3.6,1-4.1,2.8c-0.5,2.1-0.8,4.2-0.8,6.3c0,0.1,0,0.1,0,0.2  c-0.1,0.5-0.1,1.3-0.5,1.3c-0.7,0-1.4-0.2-2-0.6c-0.2-0.1-0.1-0.4,0-0.6c1-3.9,0.2-7.7-0.7-11.5c-1.3-5.5-0.7-10.4,3.5-14.6  c1.7-1.5,3.8-2.4,6.1-2.6c4.4,0.5,8.8,1.4,12.1,5C195.3,84.4,196,86.6,195.7,88.8 M191.5,74.9c-4.1-2.3-9-2.9-13.5-1.6  c-7.1,2-10.9,7-11.9,14.2c-0.4,1.5-0.5,3-0.3,4.5c0.4,2.1,0.8,4.2,1.4,6.2c1,3.1,1.8,6.3,0.4,9.6c-0.6,1.4,0.1,3.1,1.5,3.7  c0.1,0.1,0.2,0.1,0.4,0.1c4.2,1.2,8.1,3.1,12.5,3.8c1.3,0.4,2.6-0.4,3-1.6c0.7-1.9,1.9-3.6,3.5-4.9c2.1-1.7,4.5-3.1,6.5-5  c3.9-3.8,6.1-9,6.2-14.5c-0.1-1.5-0.3-3-0.6-4.4C199.3,80.1,195.8,77.2,191.5,74.9"></path>
<path class="st0" d="M62.3,72c1.1-0.6,2.3-1.1,3.4-1.7c0.6-0.3,0.9-0.2,1.3,0.4c4.9,8.9,9.8,17.8,14.7,26.7c0.3,0.5,0.6,1.1,0.9,1.6  c0,0.3-0.2,0.3-0.4,0.4c-1.3,0.5-2.6,1.1-3.8,1.9c-0.4,0.3-0.6,0-0.7-0.2c-0.6-0.8-1.2-1.6-1.7-2.5c-3.7-5.8-6.9-12-9.7-18.3  c-1-2.7-2.4-5.2-4.2-7.5C61.8,72.3,61.9,72.2,62.3,72 M84.2,103.5c0.9,0.3,0.5,1.1,0.6,2.3c0.1,0.9,0.7,2.4,0.3,3.4  c-1.4-1-2.7-2.1-3.9-3.3c-0.4-0.4-0.6-0.8-0.2-1.2C81.6,103.9,83.2,103.1,84.2,103.5 M58.2,75.2c2.3,3.8,4.4,7.8,6.3,11.9  c2.5,5,5,10.1,7.9,14.9c3.4,5.7,9,9.2,13.4,13.9c1.2,1.3,3,1.3,3.8-1c0.3-0.7,0.4-1.4,0.2-2.1c-0.1-0.7-0.2-1.4-0.2-2.1  c0-0.3,0-0.7,0-1c-0.6-2.2-0.9-4.6-0.9-6.9c0-1.4-0.3-2.8-0.9-4.1l-4.3-7.9c-4-7.5-8.4-14.8-12.2-22.4c-0.4-0.8-1-1.6-1.7-2.2  c-0.9-1-2.3-1.4-3.5-0.9c-3,0.9-5.6,2.5-8.4,3.8c-0.7,0.3-1.3,0.8-1.7,1.5c-0.4,0.5-0.4,1.2-0.2,1.7C56.2,73.5,57.4,74.2,58.2,75.2"></path>
<path class="st0" d="M151.1,137.5c0.5-0.1,1-0.1,1.5-0.1c4.3,0.1,8.1,2.9,8.7,6.9c0.3,1.7,0.2,3.5-0.4,5.2c-0.9,2.9-3.5,5-6.6,5.3  c-3.2,0.5-7.7-1.2-9.5-4.1C142.3,146.5,143.8,138.3,151.1,137.5 M152.2,160c0.8-0.1,1.7-0.2,2.6-0.2c3-0.3,5.9-1.6,8.1-3.6  c1.7-1.4,2.8-3.3,3.4-5.4c0.4-1.1,0.6-2.3,0.8-3.5c0.1-1.5-0.1-3-0.6-4.4c-0.6-3-2.3-5.7-4.8-7.5c-3-2.2-6.7-3.3-10.4-3.1  c-3.2,0.1-6.4,1.3-8.7,3.5c-3.8,3.7-4.7,8.3-3.8,13.3C140.1,156.3,145.7,159.3,152.2,160"></path>
<path class="st0" d="M107.6,199.9c0.6,0,1.1-0.1,1.6-0.2c2.5-0.1,5-0.5,7.4-1.2c11.2-3.5,17.4-11.3,20-22.5c0.2-0.5,0.2-1.1-0.1-1.6  c-0.5-1.2-1.8-1.8-3-1.4c-0.9,0.3-1.5,1.2-1.5,2.1c-0.3,1.6-0.8,3.2-1.5,4.7c-1.6,3.6-4.2,6.8-7.3,9.3c-3.6,2.7-7.7,4.6-12.2,5.3  c-9.3,1.8-18.7-2.9-22.8-11.5c-0.1-0.3-0.2-0.5-0.4-0.7c-0.7-1.2-2.3-1.6-3.6-0.9c-1,0.5-1.3,1.7-0.8,3c2.3,5.9,6.9,10.6,12.6,13.1  C99.8,199,103.7,199.9,107.6,199.9"></path>
<path class="st0" d="M116.6,180.3c-0.7,0.7-1.5,1.2-2.4,1.3c-2,0.3-4.2,0.6-6.1-0.8c-1.7-1.2-3.5-2.9-3-5.7l0,0  c-0.3-2.9,1.6-5.5,4.4-6.2c0.7-0.2,1.4-0.3,2.1-0.3c1.7,0,3.3,0.5,4.6,1.4c1.4,1,2.3,2.7,2.4,4.5C118.6,177.1,118,178.9,116.6,180.3   M117.4,165.6c-1.8-0.9-3.9-1.4-6-1.5c-3.2-0.1-6.2,1.2-8.4,3.6c-2.1,2.5-2.9,5.8-2.4,9.1c0.4,3.7,2.8,7,6.2,8.4  c1.6,0.7,3.2,1,4.9,1c2.5,0,5-0.8,7.1-2.2c3-2.1,4.6-5.7,4.3-9.3C123,170.8,120.9,167.3,117.4,165.6"></path>
<path class="st0" d="M174.7,127.6c2.4,0.6,3.5-0.2,4.3-1.8c0.2-0.3,0.5-0.6,0.8-0.6c1.5-0.4,2.5-1.8,2.4-3.3  c0.2-1.5-0.7-2.9-2.2-3.3c-3.6-1.2-7.3-2.4-11-3.5c-1.4-0.4-3,0.1-3.7,1.4c-0.9,1-0.9,2.5-0.2,3.6c0.6,0.9,1.2,1.7,0.9,2.4  c-0.4,1.1,0.2,2.3,1.3,2.7c0.1,0,0.2,0.1,0.3,0.1C169.9,126.1,172.2,127,174.7,127.6"></path>
<path class="st0" d="M221.5,135c0.4,0.8,0.8,1.6,1.9,1.5c2.6-0.1,3.6-1.8,3.5-4.2c0-2.9-0.1-5.8-0.3-8.7c-0.1-2.6-0.3-5.2-0.5-7.7  c-0.2-2.2-0.6-4.4-1.1-6.6c-0.3-1.5-1.7-2.4-3.2-2.2c-0.5,0.1-0.9,0.3-1.3,0.7c-0.3,0.2-0.6,0.4-0.6,0.9c-0.1,1-0.1,2.1,0,3.1  c0.4,2.7,0.7,5.5,1,8.2c0.4,4,0.5,8.1,0.4,12.1C221,133.1,221.1,134.1,221.5,135"></path>
<path class="st0" d="M225.7,147.8c0.4-3.1,1.9-7.9-2.6-7.6c-3.5,1-2,6-2.9,8.7c-0.7,2.9-1.6,5.8-2.7,8.6c-1,3.9,3.2,5.2,4.8,2.3  C224.4,155.9,224.7,152.5,225.7,147.8"></path>
<path class="st0" d="M163,78c0-1.3-1-2.4-2.3-2.6c-0.2,0-0.5,0-0.7-0.1c-2.3-1.3-4.9-1.5-7.2-2.4c-1.1-0.4-2.1-0.8-3.2-1.1  c-1.2-0.4-2.5,0.2-3,1.3c-0.6,1-0.3,1.8,0.6,2.8c0.6,0.5,1.3,0.9,2.1,1.2c3.3,1,6.7,2,10,3.2c0.3,0.1,0.5,0.1,0.8,0.2  C161.4,80.6,162.8,79.6,163,78C163,78.1,163,78.1,163,78"></path>
<path class="st0" d="M220.4,91.9c0-1.7-0.8-2.6-2.4-2.7c-1.8-0.2-3.5-0.2-5.3-0.1h-3.1c-1-0.1-2-0.1-3,0.1c-0.7,0.2-1.6,0.4-1.7,1.3  c-0.2,1-0.4,2.3,0.8,3c0.5,0.3,1,0.4,1.5,0.4c1.6,0,1.6,0.1,2.6,0.1c2.7,0.1,5.4-0.1,8.1,0C219.2,94,220.3,93.2,220.4,91.9"></path>
<path class="st0" d="M171.3,66.5c0.7,0,1.2,0.1,1.7-0.3c1.1-0.8,1.3-2.4,0.5-3.6c0,0,0,0,0,0c-1.2-1.8-2.3-3.6-3.3-5.5  c-0.4-0.8-1.1-1.5-2-1.9c-0.7-0.4-1.7-0.2-2.1,0.5c-0.5,0.6-1.3,1.2-0.8,2.1c1.3,2.7,2.7,5.2,4.4,7.6  C170.1,66.2,170.5,66.8,171.3,66.5"></path>
<path class="st0" d="M213.2,110.4c0.1-0.5-0.2-1.1-0.6-1.4c-1.6-1.4-3.2-2.8-4.9-4.2c-0.2-0.2-0.5-0.3-0.7-0.4c-1-0.4-2-0.1-2.6,0.8  c-0.8,1-1,2.1-0.2,2.8c1.6,1.7,3.5,3.3,5.4,4.6C211.4,113.8,213.1,112.7,213.2,110.4"></path>
<path class="st0" d="M104,82.4c0.1-2.1-1.5-4-3.7-4.1c-2.1,0.1-3.8,1.8-3.7,3.9c-0.1,2.1,1.3,3.5,3.6,3.6  C102.1,85.8,103.8,84.3,104,82.4"></path>
<path class="st0" d="M127.5,146.8c0.1-2.1-1.6-3.9-3.7-3.9c0,0,0,0,0,0c-2.1,0-3.8,1.7-3.7,3.8c0,0,0,0,0,0  c-0.1,1.9,1.4,3.6,3.4,3.6c0,0,0,0,0,0C125.6,150.5,127.4,148.9,127.5,146.8"></path>
<path class="st0" d="M203.2,174c0.1,1.9,1.6,3.4,3.5,3.5c2,0,3.7-1.6,3.8-3.6c-0.1-2.5-1.3-3.8-3.7-3.8c-1.9-0.1-3.5,1.3-3.6,3.2  C203.2,173.5,203.2,173.8,203.2,174"></path>
<path class="st0" d="M61.1,141.9c1.3-2.4,2.6-4.8,3.9-7.2c0.1-0.2,0.2-0.4,0.4-0.4c0.5,0.2,0.9,0.5,1.3,0.7  c4.1,2.4,7.9,5.2,12.3,7.1c0.6,0.2,0.6,0.5,0.3,1c-1.4,2.3-2.8,4.7-4.2,7c-0.4,0.6-0.9,0.4-1.3,0.2c-1.5-0.7-3-1.5-4.5-2.4  c-2.6-1.6-5.2-3.3-7.9-4.9C61,142.9,60.8,142.4,61.1,141.9C61,142,61,141.9,61.1,141.9 M57.3,146c5.6,3.5,11.1,7.3,17.1,10  c1.1,0.6,2.6,0.2,3.2-0.9c0,0,0-0.1,0.1-0.1c2-3.3,3.9-6.6,5.9-9.9c0.5-0.8,0.8-1.8,0.8-2.8c0-1.9-0.8-3.5-2.3-4  c-2.4-0.9-4.6-2-6.7-3.4c-3-1.8-5.9-3.7-9-5.3c-2-1-3.5-0.7-4.6,1.2c-2.1,3.6-4,7.2-5.7,11C55.1,144,55.3,144.7,57.3,146"></path>
<path class="st0" d="M66.7,165.7c-1.3,2.5-2.6,5.1-3.9,7.6c-0.4,0.7-0.8,0.8-1.5,0.4c-2.9-1.5-5.5-3.7-8.5-5.1c-1-0.5-2-1.1-3.1-1.6  c-0.6-0.3-0.6-0.7-0.4-1.3c0.7-1.5,1.5-2.9,2.3-4.4c0.5-0.8,0.9-1.6,1.2-2.5c0.3-0.9,0.9-1,1.7-0.6c1.2,0.6,2.4,1.2,3.6,1.8  c2.7,1.5,5.5,2.9,8.1,4.7c0.2,0.2,0.6,0.3,0.6,0.7C66.9,165.4,66.8,165.5,66.7,165.7 M70.2,161.8c-5.4-3.6-11.1-6.6-17.1-9.2  c-0.9-0.4-1.9,0-2.4,0.8c-0.8,1.5-1.6,2.9-2.3,4.4c-1.5,2.6-2.8,5.3-4,8c-0.7,2-0.5,2.9,1.4,4c1.6,0.9,3.2,1.8,4.7,2.8  c3.6,2.1,7.1,4.5,10.9,6.3c0.5,0.3,1.1,0.5,1.8,0.5c1.1,0,2-0.7,2.4-1.6c1-2,2.3-3.9,3.2-6.1c0.7-1.6,1.5-3.2,2.3-4.7  c1.1-2.2,0.9-3.9-0.9-5"></path>
<path class="st0" d="M128,114.1c-1.4-0.5-2.8-1.2-4.1-1.9c-0.7-0.4-0.9-0.7-0.3-1.4c1-1.1,1.9-2.2,2.8-3.3c0.8-0.8,1.4-1.8,1.8-2.9  c0.6-2-0.3-3.2-2.4-3.3c-0.9,0.1-1.6,0.6-2,1.3c-0.8,1.2-1.7,2.3-2.7,3.3c-1.1,1.3-2.1,2.8-3,4.3c-1.1,1.5-0.7,3.5,0.8,4.6  c0.1,0.1,0.1,0.1,0.2,0.1c2.3,1.4,4.6,2.8,6.9,4.2c1.2,0.8,2.6,1.2,4,1.3c0.9,0,1.8-0.1,2.3-1c0.5-1,0.2-2.2-0.7-2.9  C130.6,115.5,129.3,114.6,128,114.1"></path>
<path class="st0" d="M157.5,91.7c-1.6,0-2.9,0.6-4.3,0.7c-1.3,0-2.6,0.5-3.6,1.3c-0.3,0.2-0.5,0.6-0.6,1c-0.2,1.5,0.9,2.8,2.3,3  c0.4,0,0.7,0,1.1-0.1c1.7-0.4,3.4-0.8,5.1-1c1.5-0.3,2.5-1.6,2.5-3.1c0,0,0-0.1,0-0.1C159.7,92.4,158.7,91.6,157.5,91.7"></path>
</svg>
